<mxfile host="drawio-plugin" modified="2021-05-11T15:45:13.195Z" agent="5.0 (Macintosh; Intel Mac OS X 10_16_0) AppleWebKit/537.36 (KHTML, like Gecko) Chrome/84.0.4147.105 Safari/537.36" etag="HZEVYoLDwr8jJ91WGfx5" version="13.7.9" type="embed"><diagram id="0F3laJWfNrCaS-OK3l-x" name="DomainModel"><mxGraphModel dx="3045" dy="1383" grid="0" gridSize="10" guides="1" tooltips="1" connect="1" arrows="1" fold="1" page="0" pageScale="1" pageWidth="850" pageHeight="1100" math="0" shadow="1"><root><mxCell id="0"/><mxCell id="1" parent="0"/><mxCell id="-r3sgJ-LpjsNjoJIs72c-128" value="reserve" style="text;html=1;align=center;verticalAlign=middle;resizable=0;points=[];autosize=1;fontColor=#46495D;" parent="1" vertex="1"><mxGeometry x="-369" y="28" width="50" height="18" as="geometry"/></mxCell><mxCell id="-r3sgJ-LpjsNjoJIs72c-142" value="" style="endArrow=none;html=1;rounded=0;strokeColor=#788AA3;exitX=0.5;exitY=1;exitDx=0;exitDy=0;entryX=0.5;entryY=0;entryDx=0;entryDy=0;fontColor=#46495D;" parent="1" source="-r3sgJ-LpjsNjoJIs72c-123" target="-r3sgJ-LpjsNjoJIs72c-114" edge="1"><mxGeometry relative="1" as="geometry"><mxPoint x="-198" y="21" as="sourcePoint"/><mxPoint x="-38" y="21" as="targetPoint"/></mxGeometry></mxCell><mxCell id="-r3sgJ-LpjsNjoJIs72c-143" value="1..*" style="text;html=1;align=center;verticalAlign=middle;resizable=0;points=[];autosize=1;fontColor=#46495D;" parent="1" vertex="1"><mxGeometry x="-148" y="-35" width="28" height="18" as="geometry"/></mxCell><mxCell id="-r3sgJ-LpjsNjoJIs72c-144" value="" style="endArrow=none;html=1;rounded=0;strokeColor=#788AA3;entryX=0.994;entryY=0.16;entryDx=0;entryDy=0;exitX=0;exitY=0.5;exitDx=0;exitDy=0;entryPerimeter=0;fontColor=#46495D;" parent="1" source="-r3sgJ-LpjsNjoJIs72c-123" edge="1"><mxGeometry relative="1" as="geometry"><mxPoint x="-276" y="-69" as="sourcePoint"/><mxPoint x="-413.96000000000004" y="150.96000000000004" as="targetPoint"/><Array as="points"><mxPoint x="-304" y="-81"/><mxPoint x="-304" y="152"/></Array></mxGeometry></mxCell><mxCell id="-r3sgJ-LpjsNjoJIs72c-145" value="1" style="text;html=1;align=center;verticalAlign=middle;resizable=0;points=[];autosize=1;fontColor=#46495D;" parent="1" vertex="1"><mxGeometry x="-142.5" y="104" width="17" height="18" as="geometry"/></mxCell><mxCell id="-r3sgJ-LpjsNjoJIs72c-146" value="Contained-in" style="text;html=1;align=center;verticalAlign=middle;resizable=0;points=[];autosize=1;fontColor=#46495D;" parent="1" vertex="1"><mxGeometry x="-236.5" y="56" width="78" height="18" as="geometry"/></mxCell><mxCell id="-r3sgJ-LpjsNjoJIs72c-147" value="" style="endArrow=none;html=1;rounded=0;strokeColor=#788AA3;entryX=0;entryY=0.5;entryDx=0;entryDy=0;exitX=0.994;exitY=0.651;exitDx=0;exitDy=0;exitPerimeter=0;fontColor=#46495D;" parent="1" target="-r3sgJ-LpjsNjoJIs72c-115" edge="1"><mxGeometry relative="1" as="geometry"><mxPoint x="-413.96000000000004" y="203.00600000000009" as="sourcePoint"/><mxPoint x="-303" y="410" as="targetPoint"/></mxGeometry></mxCell><mxCell id="-r3sgJ-LpjsNjoJIs72c-114" value="Booking " style="swimlane;childLayout=stackLayout;horizontal=1;startSize=30;horizontalStack=0;rounded=1;fontSize=14;fontStyle=0;strokeWidth=2;resizeParent=0;resizeLast=1;shadow=0;dashed=0;align=center;fillColor=#B2C9AB;strokeColor=#788AA3;fontColor=#46495D;" parent="1" vertex="1"><mxGeometry x="-233" y="130" width="160" height="120" as="geometry"/></mxCell><mxCell id="-r3sgJ-LpjsNjoJIs72c-115" value="Date &#10;Camper&#10;Period" style="align=left;strokeColor=none;fillColor=none;spacingLeft=4;fontSize=12;verticalAlign=top;resizable=0;rotatable=0;part=1;fontColor=#46495D;" parent="-r3sgJ-LpjsNjoJIs72c-114" vertex="1"><mxGeometry y="30" width="160" height="90" as="geometry"/></mxCell><mxCell id="-r3sgJ-LpjsNjoJIs72c-148" value="1..*" style="text;html=1;align=center;verticalAlign=middle;resizable=0;points=[];autosize=1;fontColor=#46495D;" parent="1" vertex="1"><mxGeometry x="-268" y="212" width="28" height="18" as="geometry"/></mxCell><mxCell id="-r3sgJ-LpjsNjoJIs72c-149" value="1" style="text;html=1;align=center;verticalAlign=middle;resizable=0;points=[];autosize=1;fontColor=#46495D;" parent="1" vertex="1"><mxGeometry x="-402" y="212" width="17" height="18" as="geometry"/></mxCell><mxCell id="-r3sgJ-LpjsNjoJIs72c-150" value="make" style="text;html=1;align=center;verticalAlign=middle;resizable=0;points=[];autosize=1;fontColor=#46495D;" parent="1" vertex="1"><mxGeometry x="-319" y="178" width="39" height="18" as="geometry"/></mxCell><mxCell id="-r3sgJ-LpjsNjoJIs72c-151" value="" style="endArrow=none;html=1;rounded=0;strokeColor=#788AA3;exitX=1;exitY=0.5;exitDx=0;exitDy=0;entryX=0;entryY=0.5;entryDx=0;entryDy=0;fontColor=#46495D;" parent="1" source="-r3sgJ-LpjsNjoJIs72c-115" target="-r3sgJ-LpjsNjoJIs72c-119" edge="1"><mxGeometry relative="1" as="geometry"><mxPoint x="-53" y="279" as="sourcePoint"/><mxPoint x="83" y="279" as="targetPoint"/></mxGeometry></mxCell><mxCell id="-r3sgJ-LpjsNjoJIs72c-152" value="1" style="text;html=1;align=center;verticalAlign=middle;resizable=0;points=[];autosize=1;fontColor=#46495D;" parent="1" vertex="1"><mxGeometry x="-400" y="126" width="17" height="18" as="geometry"/></mxCell><mxCell id="-r3sgJ-LpjsNjoJIs72c-153" value="1" style="text;html=1;align=center;verticalAlign=middle;resizable=0;points=[];autosize=1;fontColor=#46495D;" parent="1" vertex="1"><mxGeometry x="-262.5" y="-105" width="17" height="18" as="geometry"/></mxCell><mxCell id="-r3sgJ-LpjsNjoJIs72c-154" value="1" style="text;html=1;align=center;verticalAlign=middle;resizable=0;points=[];autosize=1;fontColor=#46495D;" parent="1" vertex="1"><mxGeometry x="-63" y="181" width="17" height="18" as="geometry"/></mxCell><mxCell id="-r3sgJ-LpjsNjoJIs72c-155" value="1..*" style="text;html=1;align=center;verticalAlign=middle;resizable=0;points=[];autosize=1;fontColor=#46495D;" parent="1" vertex="1"><mxGeometry x="72" y="181" width="28" height="18" as="geometry"/></mxCell><mxCell id="-r3sgJ-LpjsNjoJIs72c-156" value="create" style="text;html=1;align=center;verticalAlign=middle;resizable=0;points=[];autosize=1;fontColor=#46495D;" parent="1" vertex="1"><mxGeometry x="-14" y="180" width="43" height="18" as="geometry"/></mxCell><mxCell id="-r3sgJ-LpjsNjoJIs72c-118" value="Payment" style="swimlane;childLayout=stackLayout;horizontal=1;startSize=30;horizontalStack=0;rounded=1;fontSize=14;fontStyle=0;strokeWidth=2;resizeParent=0;resizeLast=1;shadow=0;dashed=0;align=center;fillColor=#B2C9AB;strokeColor=#788AA3;fontColor=#46495D;" parent="1" vertex="1"><mxGeometry x="110" y="121" width="160" height="136" as="geometry"/></mxCell><mxCell id="-r3sgJ-LpjsNjoJIs72c-119" value="Bank&#10;Discount&#10;Deposit&#10;Insurance&#10;Price Category&#10;mile free" style="align=left;strokeColor=none;fillColor=none;spacingLeft=4;fontSize=12;verticalAlign=top;resizable=0;rotatable=0;part=1;fontColor=#46495D;" parent="-r3sgJ-LpjsNjoJIs72c-118" vertex="1"><mxGeometry y="30" width="160" height="106" as="geometry"/></mxCell><mxCell id="-r3sgJ-LpjsNjoJIs72c-161" value="" style="endArrow=none;html=1;rounded=0;strokeColor=#788AA3;exitX=0.5;exitY=1;exitDx=0;exitDy=0;entryX=0.5;entryY=0;entryDx=0;entryDy=0;fontColor=#46495D;" parent="1" source="-r3sgJ-LpjsNjoJIs72c-119" target="-r3sgJ-LpjsNjoJIs72c-159" edge="1"><mxGeometry relative="1" as="geometry"><mxPoint x="31" y="363" as="sourcePoint"/><mxPoint x="214" y="362" as="targetPoint"/></mxGeometry></mxCell><mxCell id="-r3sgJ-LpjsNjoJIs72c-163" value="1" style="text;html=1;align=center;verticalAlign=middle;resizable=0;points=[];autosize=1;fontColor=#46495D;" parent="1" vertex="1"><mxGeometry x="200" y="264" width="17" height="18" as="geometry"/></mxCell><mxCell id="-r3sgJ-LpjsNjoJIs72c-164" value="1" style="text;html=1;align=center;verticalAlign=middle;resizable=0;points=[];autosize=1;fontColor=#46495D;" parent="1" vertex="1"><mxGeometry x="200" y="470" width="17" height="18" as="geometry"/></mxCell><mxCell id="-r3sgJ-LpjsNjoJIs72c-165" value="contained" style="text;html=1;align=center;verticalAlign=middle;resizable=0;points=[];autosize=1;fontColor=#46495D;" parent="1" vertex="1"><mxGeometry x="213" y="361" width="62" height="18" as="geometry"/></mxCell><mxCell id="-r3sgJ-LpjsNjoJIs72c-166" value="" style="endArrow=none;html=1;rounded=0;strokeColor=#788AA3;entryX=0.5;entryY=1;entryDx=0;entryDy=0;exitX=0;exitY=0.25;exitDx=0;exitDy=0;fontColor=#46495D;" parent="1" source="-r3sgJ-LpjsNjoJIs72c-160" edge="1"><mxGeometry relative="1" as="geometry"><mxPoint x="-305.25" y="361" as="sourcePoint"/><mxPoint x="-493" y="240" as="targetPoint"/><Array as="points"><mxPoint x="-489" y="552"/></Array></mxGeometry></mxCell><mxCell id="-r3sgJ-LpjsNjoJIs72c-167" value="1" style="text;html=1;align=center;verticalAlign=middle;resizable=0;points=[];autosize=1;fontColor=#46495D;" parent="1" vertex="1"><mxGeometry x="-522" y="266" width="17" height="18" as="geometry"/></mxCell><mxCell id="-r3sgJ-LpjsNjoJIs72c-168" value="1..*" style="text;html=1;align=center;verticalAlign=middle;resizable=0;points=[];autosize=1;fontColor=#46495D;" parent="1" vertex="1"><mxGeometry x="67" y="517" width="28" height="18" as="geometry"/></mxCell><mxCell id="-r3sgJ-LpjsNjoJIs72c-169" value="depend" style="text;html=1;align=center;verticalAlign=middle;resizable=0;points=[];autosize=1;fontColor=#46495D;" parent="1" vertex="1"><mxGeometry x="-397" y="562" width="50" height="18" as="geometry"/></mxCell><mxCell id="-r3sgJ-LpjsNjoJIs72c-134" value="Post System" style="swimlane;childLayout=stackLayout;horizontal=1;startSize=30;horizontalStack=0;rounded=1;fontSize=14;fontStyle=0;strokeWidth=2;resizeParent=0;resizeLast=1;shadow=0;dashed=0;align=center;fillColor=#B2C9AB;strokeColor=#788AA3;fontColor=#46495D;" parent="1" vertex="1"><mxGeometry x="-233" y="386" width="160" height="120" as="geometry"/></mxCell><mxCell id="-r3sgJ-LpjsNjoJIs72c-135" value="receive&#10;notification&#10;reminder&#10;" style="align=left;strokeColor=none;fillColor=none;spacingLeft=4;fontSize=12;verticalAlign=top;resizable=0;rotatable=0;part=1;fontColor=#46495D;" parent="-r3sgJ-LpjsNjoJIs72c-134" vertex="1"><mxGeometry y="30" width="160" height="90" as="geometry"/></mxCell><mxCell id="-r3sgJ-LpjsNjoJIs72c-170" value="" style="endArrow=none;html=1;rounded=0;strokeColor=#788AA3;exitX=0.5;exitY=1;exitDx=0;exitDy=0;entryX=0.5;entryY=0;entryDx=0;entryDy=0;fontColor=#46495D;" parent="1" source="-r3sgJ-LpjsNjoJIs72c-115" target="-r3sgJ-LpjsNjoJIs72c-134" edge="1"><mxGeometry relative="1" as="geometry"><mxPoint x="-25" y="280" as="sourcePoint"/><mxPoint x="-21.5" y="452" as="targetPoint"/></mxGeometry></mxCell><mxCell id="-r3sgJ-LpjsNjoJIs72c-171" value="use" style="text;html=1;align=center;verticalAlign=middle;resizable=0;points=[];autosize=1;fontColor=#46495D;" parent="1" vertex="1"><mxGeometry x="-136" y="314" width="29" height="18" as="geometry"/></mxCell><mxCell id="-r3sgJ-LpjsNjoJIs72c-172" value="" style="endArrow=none;html=1;rounded=0;strokeColor=#788AA3;exitX=0.25;exitY=1;exitDx=0;exitDy=0;entryX=1;entryY=0.25;entryDx=0;entryDy=0;fontColor=#46495D;" parent="1" source="-r3sgJ-LpjsNjoJIs72c-119" target="-r3sgJ-LpjsNjoJIs72c-135" edge="1"><mxGeometry relative="1" as="geometry"><mxPoint x="-136.5" y="-22" as="sourcePoint"/><mxPoint x="-133" y="150" as="targetPoint"/><Array as="points"><mxPoint x="150" y="439"/></Array></mxGeometry></mxCell><mxCell id="-r3sgJ-LpjsNjoJIs72c-159" value="invoice" style="swimlane;childLayout=stackLayout;horizontal=1;startSize=30;horizontalStack=0;rounded=1;fontSize=14;fontStyle=0;strokeWidth=2;resizeParent=0;resizeLast=1;shadow=0;dashed=0;align=center;fillColor=#B2C9AB;strokeColor=#788AA3;fontColor=#46495D;" parent="1" vertex="1"><mxGeometry x="110" y="499" width="160" height="120" as="geometry"/></mxCell><mxCell id="-r3sgJ-LpjsNjoJIs72c-160" value="Basic-insurance&#10;Super-Cover-Plus-insurance" style="align=left;strokeColor=none;fillColor=none;spacingLeft=4;fontSize=12;verticalAlign=top;resizable=0;rotatable=0;part=1;fontColor=#46495D;" parent="-r3sgJ-LpjsNjoJIs72c-159" vertex="1"><mxGeometry y="30" width="160" height="90" as="geometry"/></mxCell><mxCell id="-r3sgJ-LpjsNjoJIs72c-173" value="1..*" style="text;html=1;align=center;verticalAlign=middle;resizable=0;points=[];autosize=1;fontColor=#46495D;" parent="1" vertex="1"><mxGeometry x="-65" y="407" width="28" height="18" as="geometry"/></mxCell><mxCell id="-r3sgJ-LpjsNjoJIs72c-174" value="1" style="text;html=1;align=center;verticalAlign=middle;resizable=0;points=[];autosize=1;fontColor=#46495D;" parent="1" vertex="1"><mxGeometry x="125" y="264" width="17" height="18" as="geometry"/></mxCell><mxCell id="-r3sgJ-LpjsNjoJIs72c-175" value="use" style="text;html=1;align=center;verticalAlign=middle;resizable=0;points=[];autosize=1;fontColor=#46495D;" parent="1" vertex="1"><mxGeometry x="99" y="409" width="29" height="18" as="geometry"/></mxCell><mxCell id="-r3sgJ-LpjsNjoJIs72c-176" value="" style="endArrow=none;html=1;rounded=0;strokeColor=#788AA3;entryX=0.75;entryY=1;entryDx=0;entryDy=0;exitX=0;exitY=0.5;exitDx=0;exitDy=0;fontColor=#46495D;" parent="1" source="-r3sgJ-LpjsNjoJIs72c-135" edge="1"><mxGeometry relative="1" as="geometry"><mxPoint x="120" y="561.5" as="sourcePoint"/><mxPoint x="-453" y="240" as="targetPoint"/><Array as="points"><mxPoint x="-449" y="461"/></Array></mxGeometry></mxCell><mxCell id="-r3sgJ-LpjsNjoJIs72c-177" value="transfer" style="text;html=1;align=center;verticalAlign=middle;resizable=0;points=[];autosize=1;fontColor=#46495D;" parent="1" vertex="1"><mxGeometry x="-408" y="434" width="51" height="18" as="geometry"/></mxCell><mxCell id="-r3sgJ-LpjsNjoJIs72c-178" value="1..*" style="text;html=1;align=center;verticalAlign=middle;resizable=0;points=[];autosize=1;fontColor=#46495D;" parent="1" vertex="1"><mxGeometry x="-268" y="432" width="28" height="18" as="geometry"/></mxCell><mxCell id="-r3sgJ-LpjsNjoJIs72c-179" value="1" style="text;html=1;align=center;verticalAlign=middle;resizable=0;points=[];autosize=1;fontColor=#46495D;" parent="1" vertex="1"><mxGeometry x="-438" y="269" width="17" height="18" as="geometry"/></mxCell><mxCell id="-r3sgJ-LpjsNjoJIs72c-122" value="Camper" style="swimlane;childLayout=stackLayout;horizontal=1;startSize=30;horizontalStack=0;rounded=1;fontSize=14;fontStyle=0;strokeWidth=2;resizeParent=0;resizeLast=1;shadow=0;dashed=0;align=center;fillColor=#B2C9AB;strokeColor=#788AA3;fontColor=#46495D;" parent="1" vertex="1"><mxGeometry x="-230" y="-150" width="160" height="108" as="geometry"/></mxCell><mxCell id="-r3sgJ-LpjsNjoJIs72c-123" value="Camper Type&#10;Category&#10;register year" style="align=left;strokeColor=none;fillColor=none;spacingLeft=4;fontSize=12;verticalAlign=top;resizable=0;rotatable=0;part=1;fontColor=#46495D;" parent="-r3sgJ-LpjsNjoJIs72c-122" vertex="1"><mxGeometry y="30" width="160" height="78" as="geometry"/></mxCell><mxCell id="6" value="Admin" style="swimlane;childLayout=stackLayout;horizontal=1;startSize=30;horizontalStack=0;rounded=1;fontSize=14;fontStyle=0;strokeWidth=2;resizeParent=0;resizeLast=1;shadow=0;dashed=0;align=center;fillColor=#B2C9AB;strokeColor=#788AA3;fontColor=#46495D;" parent="1" vertex="1"><mxGeometry x="-862" y="8" width="160" height="136" as="geometry"/></mxCell><mxCell id="-r3sgJ-LpjsNjoJIs72c-111" value="Client" style="swimlane;childLayout=stackLayout;horizontal=1;startSize=30;horizontalStack=0;rounded=1;fontSize=14;fontStyle=0;strokeWidth=2;resizeParent=0;resizeLast=1;shadow=0;dashed=0;align=center;fillColor=#B2C9AB;strokeColor=#788AA3;fontColor=#46495D;" parent="1" vertex="1"><mxGeometry x="-862" y="218" width="160" height="136" as="geometry"/></mxCell><mxCell id="-r3sgJ-LpjsNjoJIs72c-112" value="Name&#10;Address&#10;Email&#10;Drive License &#10;Co Driver License&#10;Rent times" style="align=left;strokeColor=none;fillColor=none;spacingLeft=4;fontSize=12;verticalAlign=top;resizable=0;rotatable=0;part=1;fontColor=#46495D;" parent="-r3sgJ-LpjsNjoJIs72c-111" vertex="1"><mxGeometry y="30" width="160" height="106" as="geometry"/></mxCell><mxCell id="8" value="" style="endArrow=none;html=1;rounded=0;strokeColor=#788AA3;entryX=1;entryY=0.5;entryDx=0;entryDy=0;exitX=0;exitY=0.25;exitDx=0;exitDy=0;fontColor=#46495D;" parent="1" edge="1"><mxGeometry relative="1" as="geometry"><mxPoint x="-573" y="160.5" as="sourcePoint"/><mxPoint x="-702" y="91" as="targetPoint"/><Array as="points"><mxPoint x="-629" y="91"/></Array></mxGeometry></mxCell><mxCell id="9" value="1" style="edgeLabel;html=1;align=center;verticalAlign=middle;resizable=0;points=[];fontColor=#46495D;" parent="8" vertex="1" connectable="0"><mxGeometry x="0.7915" y="3" relative="1" as="geometry"><mxPoint as="offset"/></mxGeometry></mxCell><mxCell id="10" value="1" style="edgeLabel;html=1;align=center;verticalAlign=middle;resizable=0;points=[];fontColor=#46495D;" parent="8" vertex="1" connectable="0"><mxGeometry x="-0.7731" y="3" relative="1" as="geometry"><mxPoint as="offset"/></mxGeometry></mxCell><mxCell id="4" value="User" style="swimlane;childLayout=stackLayout;horizontal=1;startSize=30;horizontalStack=0;rounded=1;fontSize=14;fontStyle=0;strokeWidth=2;resizeParent=0;resizeLast=1;shadow=0;dashed=0;align=center;fillColor=#B2C9AB;strokeColor=#788AA3;fontColor=#46495D;" parent="1" vertex="1"><mxGeometry x="-573" y="104" width="160" height="136" as="geometry"/></mxCell><mxCell id="16" value="Administrator&lt;br&gt;Client" style="text;html=1;align=center;verticalAlign=middle;resizable=0;points=[];autosize=1;fontColor=#46495D;" parent="4" vertex="1"><mxGeometry y="30" width="160" height="106" as="geometry"/></mxCell><mxCell id="11" value="" style="endArrow=none;html=1;rounded=0;strokeColor=#788AA3;entryX=1;entryY=0.25;entryDx=0;entryDy=0;exitX=0;exitY=0.5;exitDx=0;exitDy=0;fontColor=#46495D;" parent="1" target="-r3sgJ-LpjsNjoJIs72c-112" edge="1"><mxGeometry relative="1" as="geometry"><mxPoint x="-573" y="187" as="sourcePoint"/><mxPoint x="-692" y="101" as="targetPoint"/><Array as="points"><mxPoint x="-622" y="275"/></Array></mxGeometry></mxCell><mxCell id="12" value="1" style="edgeLabel;html=1;align=center;verticalAlign=middle;resizable=0;points=[];fontColor=#46495D;" parent="11" vertex="1" connectable="0"><mxGeometry x="0.7915" y="3" relative="1" as="geometry"><mxPoint as="offset"/></mxGeometry></mxCell><mxCell id="13" value="1" style="edgeLabel;html=1;align=center;verticalAlign=middle;resizable=0;points=[];fontColor=#46495D;" parent="11" vertex="1" connectable="0"><mxGeometry x="-0.7731" y="3" relative="1" as="geometry"><mxPoint as="offset"/></mxGeometry></mxCell></root></mxGraphModel></diagram></mxfile>